# xmcd
#
# Track frame offsets: 
#        150
#        13341
#        28750
#        43301
#        55181
#        69318
#        85321
#        97642
#        115901
#        130372
#        143457
#        157861
#        174308
#
# Disc length: 2538 seconds
#
# Revision: 1
# Processed by: cddbd v1.5.2PL0 Copyright (c) Steve Scherf et al.
# Submitted via: ExactAudioCopy v0.95b4
#
DISCID=a209e80d
DTITLE=Andre Nickatina and Equipto - Gun-Mouth 4 Hire: Horns And Halos #
DTITLE=2
DYEAR=2005
DGENRE=Rap
TTITLE0=U Got Talent
TTITLE1=Da Spitz
TTITLE2=Bonus feat. The Jacka - Mob Figaz
TTITLE3=Caught In A Verse
TTITLE4=A Pimp's Blood
TTITLE5=God Gimmie G's
TTITLE6=Sip On Dat Note
TTITLE7=All N Da Game feat. Mike Marshall and Shag Nasty
TTITLE8=Tell Dat Ta Dummies
TTITLE9=Knyte Rydah feat. Mike 2X's
TTITLE10=Cottoncandyland (CB Mix)
TTITLE11=4am-Bay Bridge Music
TTITLE12=Box Of Lucky Charms
EXTD=
EXTT0=
EXTT1=
EXTT2=
EXTT3=
EXTT4=
EXTT5=
EXTT6=
EXTT7=
EXTT8=
EXTT9=
EXTT10=
EXTT11=
EXTT12=
PLAYORDER=
